<svg xmlns="http://www.w3.org/2000/svg" version="1.1" viewBox="-5.0 -10.0 110.0 135.0">
 <path d="m89.695 82.957c1.2852-1.2852 2.0859-3.0625 2.0859-5.0195 0-2.3789 0.011719-7.6641 0.019531-12.949 0-3.3477 0.019531-6.707 0.019531-12.98 0-0.39844-0.15625-0.75781-0.42187-1.0117-0.26172-0.26172-0.62109-0.42188-1.0117-0.42188-0.33594 0-0.60156 0.125-0.77734 0.32812-0.23047 0.26172-0.35938 0.65234-0.35938 1.1172v9.4648c0 0.33594-0.13672 0.64062-0.35938 0.86328s-0.52734 0.35938-0.86328 0.35938h-0.15625c-0.33594 0-0.64062-0.13672-0.86328-0.35938-0.22266-0.22266-0.35937-0.52734-0.35937-0.86328v-12.305c0-0.55859-0.23047-1.0742-0.60156-1.4414-0.36719-0.36719-0.88281-0.60156-1.4414-0.60156-0.51562 0-0.92578 0.19922-1.2109 0.51562-0.33594 0.36719-0.52734 0.91406-0.52734 1.5273v9.2617c0 0.33594-0.13672 0.64062-0.35938 0.86328-0.22266 0.22266-0.52734 0.35937-0.86328 0.35937h-0.26172c-0.33594 0-0.64062-0.13672-0.86328-0.35937-0.22266-0.22266-0.35938-0.52734-0.35938-0.86328v-12.441c0-0.55859-0.23047-1.0742-0.60156-1.4414-0.36719-0.36719-0.88281-0.60156-1.4414-0.60156-0.51563 0-0.92578 0.19922-1.2109 0.51562-0.33594 0.36719-0.52734 0.91406-0.52734 1.5352v10.777c0 0.33594-0.13672 0.64062-0.35938 0.86328-0.22266 0.22266-0.52734 0.35937-0.86328 0.35937h-0.19922c-0.16797 0-0.32812-0.03125-0.46484-0.085937-0.15625-0.0625-0.29297-0.15625-0.39844-0.26172-0.11719-0.11719-0.19922-0.24219-0.26172-0.39844s-0.09375-0.31641-0.09375-0.47266v-19.336c0-0.85156-0.26172-1.6211-0.69531-2.1562-0.36719-0.46484-0.84375-0.74609-1.3477-0.74609-0.50391 0-0.98828 0.28516-1.3477 0.74609-0.42969 0.54688-0.69531 1.3047-0.69531 2.1562v40.496c0 1.9492 0.80078 3.7266 2.0859 5.0195 1.2852 1.2852 3.0625 2.0859 5.0195 2.0859h7.957c1.9492 0 3.7266-0.80078 5.0195-2.0859zm-21.086-49.262c-0.050781-0.14844-0.09375-0.29297-0.13672-0.44141-0.24219-0.83203-0.36719-1.7148-0.36719-2.6406 0-2.6094 1.0508-4.9688 2.7695-6.6836 1.707-1.707 4.0742-2.7695 6.6836-2.7695s4.9688 1.0508 6.6836 2.7695c1.707 1.707 2.7695 4.0742 2.7695 6.6836s-1.0508 4.9688-2.7695 6.6836c-1.707 1.707-4.0742 2.7695-6.6836 2.7695-0.42969 0-0.84375-0.019531-1.2109-0.074218-0.10547-0.011719-0.21094-0.03125-0.30469-0.042969v-2.4961c0-1.3906-0.45312-2.6641-1.1914-3.6016-0.80078-1.0117-1.9258-1.6406-3.1797-1.6406-1.1914 0-2.2617 0.55859-3.0508 1.4844zm18.191 11.715c-0.65234-0.37891-1.3984-0.60156-2.2109-0.60156-0.80859 0-1.5586 0.23047-2.168 0.63281-0.125-0.98047-0.57812-1.8516-1.2422-2.5273-0.31641-0.31641-0.68359-0.58984-1.0859-0.80078 2.2305-0.49609 4.2227-1.6094 5.7891-3.1797 2.1367-2.1367 3.4531-5.0742 3.4531-8.3281 0-3.2539-1.3164-6.1992-3.4531-8.3281-2.1367-2.1367-5.0742-3.4531-8.3281-3.4531-3.2539 0-6.1992 1.3164-8.3281 3.4531-2.1367 2.1367-3.4531 5.0742-3.4531 8.3281 0 1.125 0.16797 2.2305 0.46484 3.2852 0.27344 0.92578 0.64062 1.8086 1.1172 2.6211-0.042969 0.30469-0.074219 0.62109-0.074219 0.9375v8.8008l-49.008 0.003906c-4.3047 0-8.2109-1.7578-11.051-4.6016-2.832-2.832-4.6016-6.7461-4.6016-11.051 0-4.3047 1.7578-8.2109 4.6016-11.051 2.832-2.832 6.7461-4.6016 11.051-4.6016h63.441c4.3047 0 8.2109 1.7578 11.051 4.6016 2.832 2.832 4.6016 6.7461 4.6016 11.051 0 3.4727-1.1367 6.6836-3.0625 9.2852-1.875 2.5273-4.4844 4.4727-7.4961 5.5156zm-19.516 19.086v-11.988l-0.57812 0.77734c-0.13672 0.19141-0.27344 0.34766-0.39844 0.49609-0.19922 0.23047-0.39062 0.45312-0.39844 0.60156l-0.34766 3.8086-0.19141 3.0117c-0.03125 0.57812 0.0625 1.1172 0.27344 1.5898 0.22266 0.47266 0.55859 0.89453 1.0195 1.2422l0.62109 0.46484z" fill-rule="evenodd"/>
<text x="0.0" y="117.5" font-size="5.0" font-weight="bold" font-family="Arbeit Regular, Helvetica, Arial-Unicode, Arial, Sans-serif" fill="#000000">Created by adkiyah</text><text x="0.0" y="122.5" font-size="5.0" font-weight="bold" font-family="Arbeit Regular, Helvetica, Arial-Unicode, Arial, Sans-serif" fill="#000000">from Noun Project</text></svg>