<svg xmlns="http://www.w3.org/2000/svg" xmlns:xlink="http://www.w3.org/1999/xlink" version="1.1" x="0px" y="0px" viewBox="0 0 128 160" style="enable-background:new 0 0 128 128;" xml:space="preserve"><path d="M123.4,61.4L105,24.8c0.9,0,1.7-0.1,2.6-0.1c0.9-0.1,1.8-0.5,2.4-1.1c0.6-0.6,1-1.5,1-2.5c0-1.9-1.5-3.5-3.4-3.6  c-6.7-0.4-13.4-0.6-20.1-0.8c-7.8-0.2-15.6-0.3-23.5-0.3H64h-0.1c-7.8,0-15.6,0.1-23.5,0.3c-6.7,0.2-13.4,0.4-20.1,0.8  c-1.9,0.1-3.4,1.7-3.4,3.6c0,0.9,0.4,1.8,1,2.5c0.6,0.6,1.4,1.1,2.4,1.1c0.9,0,1.7,0.1,2.6,0.1L4.6,61.4H2.8v3.9c0,7,5,13,11.9,14.3  c0,0,0.1,0,0.1,0c4.3,0.8,17.9,0.8,22.2,0c0,0,0.1,0,0.1,0c6.9-1.3,11.9-7.3,11.9-14.3v-3.9h-1.8L28.9,25.1  c3.9,0.2,7.7,0.3,11.6,0.4c6,0.1,12.1,0.2,18.1,0.2l-5.2,69.9c-7.7,0.2-13.9,6.5-13.9,14.3v1.5H64h24.5v-1.5  c0-7.8-6.2-14.1-13.9-14.3l-5.2-69.9c6,0,12.1-0.1,18.1-0.2c3.9-0.1,7.7-0.2,11.6-0.4L80.9,61.4h-1.8v3.9c0,7,5,13,11.9,14.3  c0,0,0.1,0,0.1,0c4.3,0.8,17.9,0.8,22.2,0c0,0,0.1,0,0.1,0c6.9-1.3,11.9-7.3,11.9-14.3v-3.9H123.4z M41.6,61.4H10.2l15.7-31.3  L41.6,61.4z M86.4,61.4l15.7-31.3l15.7,31.3H86.4z"/><text x="0" y="143" fill="#000000" font-size="5px" font-weight="bold" font-family="'Helvetica Neue', Helvetica, Arial-Unicode, Arial, Sans-serif">Created by visual language</text><text x="0" y="148" fill="#000000" font-size="5px" font-weight="bold" font-family="'Helvetica Neue', Helvetica, Arial-Unicode, Arial, Sans-serif">from the Noun Project</text></svg>