<svg xmlns="http://www.w3.org/2000/svg" xmlns:xlink="http://www.w3.org/1999/xlink" version="1.1" x="0px" y="0px" viewBox="0 0 90 112.5" enable-background="new 0 0 90 90" xml:space="preserve"><path d="M55.434,72.521c0,3.712-1.979,6.553-5.193,8.41c-3.213,1.856-7.172,1.856-10.379,0c-3.215-1.857-5.193-4.698-5.193-8.41"/><path d="M45.049,7.708c2.832,0,5.113,1.746,5.113,4.431c0,1.69,0.059,2.951,1.121,3.274c9.031,2.727,14.822,9.119,14.822,17.42  v13.952c0,6.392,2.615,7.686,5.906,10.131c4.766,3.535,3.678,10.896-1.791,10.891h-50.34c-5.469,0.005-6.557-7.356-1.791-10.891  c3.287-2.445,5.906-3.739,5.906-10.131V32.833c0-8.301,5.791-14.693,14.822-17.42c1.059-0.323,1.121-1.584,1.121-3.274  C39.939,9.454,42.221,7.708,45.049,7.708z"/><text x="0" y="105" fill="#000000" font-size="5px" font-weight="bold" font-family="'Helvetica Neue', Helvetica, Arial-Unicode, Arial, Sans-serif">Created by Cuputo</text><text x="0" y="110" fill="#000000" font-size="5px" font-weight="bold" font-family="'Helvetica Neue', Helvetica, Arial-Unicode, Arial, Sans-serif">from the Noun Project</text></svg>