<svg xmlns="http://www.w3.org/2000/svg" version="1.1" viewBox="-5.0 -10.0 110.0 135.0">
 <path d="m89.379 59.859c-2.8711-1.2148-6.1875 0.12891-7.4062 3-5.1875 12.266-17.141 20.188-30.457 20.188-18.227 0-33.051-14.824-33.051-33.051 0-18.227 14.828-33.047 33.055-33.047 6.6953 0 13.113 2.0352 18.508 5.6797h-1.8438c-3.1172 0-5.6484 2.5312-5.6484 5.6484 0 3.1172 2.5312 5.6484 5.6484 5.6484h21.016l0.003906-21.016c0-3.1172-2.5312-5.6484-5.6484-5.6484-3.1172 0-5.6484 2.5312-5.6484 5.6484v1.4414c-7.5352-5.5781-16.75-8.6992-26.383-8.6992-24.457-0.003906-44.355 19.891-44.355 44.348s19.895 44.352 44.352 44.352c17.863 0 33.902-10.633 40.863-27.086 1.2148-2.875-0.12891-6.1875-3-7.4062z"/>
 <path d="m48.809 30.484c-2.3398 0-4.2383 1.8984-4.2383 4.2383v21.066l10.762 10.762c0.82422 0.82422 1.9102 1.2422 2.9961 1.2422s2.168-0.41406 2.9961-1.2422c1.6562-1.6562 1.6562-4.3398 0-5.9961l-8.2812-8.2812v-17.555c0-2.3398-1.8984-4.2383-4.2383-4.2383z"/>
<text x="0.0" y="117.5" font-size="5.0" font-weight="bold" font-family="Arbeit Regular, Helvetica, Arial-Unicode, Arial, Sans-serif" fill="#000000">Created by Aman</text><text x="0.0" y="122.5" font-size="5.0" font-weight="bold" font-family="Arbeit Regular, Helvetica, Arial-Unicode, Arial, Sans-serif" fill="#000000">from Noun Project</text></svg>