<svg xmlns="http://www.w3.org/2000/svg" xmlns:xlink="http://www.w3.org/1999/xlink" version="1.1" x="0px" y="0px" viewBox="0 0 64 80" style="enable-background:new 0 0 64 64;" xml:space="preserve"><g><path d="M58.25,33H31.26V6.02c0-0.75-0.59-1.34-1.34-1.34c-16.36,0-29.66,13.31-29.66,29.66C0.26,50.69,13.57,64,29.92,64   c16.36,0,29.67-13.31,29.67-29.66C59.59,33.6,58.99,33,58.25,33z"/><path d="M34.08,0c-0.74,0-1.34,0.6-1.34,1.34v28.32c0,0.74,0.6,1.34,1.34,1.34H62.4c0.74,0,1.34-0.6,1.34-1.34   C63.74,13.31,50.43,0,34.08,0z"/></g><text x="0" y="79" fill="#000000" font-size="5px" font-weight="bold" font-family="'Helvetica Neue', Helvetica, Arial-Unicode, Arial, Sans-serif">Created by Rank Sol</text><text x="0" y="84" fill="#000000" font-size="5px" font-weight="bold" font-family="'Helvetica Neue', Helvetica, Arial-Unicode, Arial, Sans-serif">from the Noun Project</text></svg>