<svg xmlns="http://www.w3.org/2000/svg" version="1.1" viewBox="-5.0 -10.0 110.0 135.0">
 <path d="m64.57 20.297h-5.1211l0.32812-0.53516c0.089844-0.14844 0.19922-0.28516 0.32031-0.40625 0.40625-0.40625 0.95703-0.64062 1.5352-0.64062h0.75781c0.57812 0 1.125 0.23047 1.5352 0.64062 0.12109 0.12109 0.23047 0.26172 0.32031 0.40625zm-51.785 47.555c-0.70312 2.3086-4.1523 2.5508-4.3945-0.49609-0.15234-1.9375-0.0625-4.3516-0.066406-6.3438-0.011719-11.391 7.6602-17.137 19.309-12.766 5.3438 2.7539 6.2656 2.0938 7.168 1.9258l6.6367-2.0664c4.1953-1.3047 6.332 3.6367 0.72656 5.418-4.9922 1.5859-10.402 3.875-12.742 3.3164v14.133c0 0.53516-0.4375 0.97266-0.97266 0.97266l-13.488-0.003906c-0.58203 0-1.0547-0.47266-1.0547-1.0547l-0.003906-9.9727c0-0.29297-0.23828-0.52734-0.52734-0.52734-0.29297 0-0.52734 0.23438-0.52734 0.52734zm8.1016-22.02c3.3516 0 6.0664-2.7148 6.0664-6.0664s-2.7148-6.0664-6.0664-6.0664c-3.3516 0-6.0664 2.7148-6.0664 6.0664s2.7148 6.0664 6.0664 6.0664zm37.832 19.949h-3.125l-8.0508 13.473c-0.37891 0.63672-0.17188 1.4609 0.46094 1.8398 0.63672 0.37891 1.4609 0.17188 1.8398-0.46094zm4.6367 0v11.855c0 0.74219-0.60156 1.3438-1.3477 1.3438-0.74219 0-1.3477-0.60156-1.3477-1.3438l0.003906-11.855zm5.0742 0 8.0508 13.473c0.37891 0.63672 0.17188 1.4609-0.46094 1.8398-0.63672 0.37891-1.4609 0.17188-1.8398-0.46094l-8.875-14.852zm-33.559-39.203v21.363l5.9375-1.8516c2.6758-0.83203 5.8906 0.070312 6.6992 3.0039 0.14844 0.54297 0.1875 1.0938 0.125 1.625h2.5664c0.58203 0 1.0547 0.47266 1.0547 1.0547v7.3164c0 0.58203-0.47266 1.0547-1.0547 1.0547l-5.707 0.003907c-0.58203 0-1.0547-0.47266-1.0547-1.0547v-3.7812c-0.21094 0.082031-0.42188 0.15625-0.63281 0.22266-2.4727 0.78516-4.9062 1.7031-7.3828 2.4688-0.17578 0.054688-0.35938 0.10938-0.54688 0.16797v4.2539c0 0.34375 0.14062 0.65625 0.36719 0.88281 0.22656 0.22656 0.53906 0.36719 0.88281 0.36719h51.781c0.34375 0 0.65625-0.14062 0.88281-0.36719 0.22656-0.22656 0.36719-0.53906 0.36719-0.88281l-0.007812-35.848zm13.27 15.719c-0.20312-0.20312-0.48438-0.32812-0.79688-0.32812s-0.58984 0.125-0.79688 0.32812c-0.20312 0.20312-0.32812 0.48438-0.32812 0.79688s0.125 0.58984 0.32812 0.79688c0.20312 0.20312 0.48438 0.32812 0.79688 0.32812s0.59375-0.125 0.79688-0.32812 0.32812-0.48438 0.32812-0.79688-0.125-0.59375-0.32812-0.79688zm9.5117-8.0469c0.20312 0.20312 0.32812 0.48438 0.32812 0.79688s-0.125 0.58984-0.32812 0.79688c-0.20312 0.20312-0.48438 0.32812-0.79688 0.32812s-0.59375-0.125-0.79688-0.32812-0.32812-0.48438-0.32812-0.79688 0.125-0.59375 0.32812-0.79688 0.48438-0.32812 0.79688-0.32812 0.59375 0.125 0.79688 0.32812zm9.5117 3.2109c0.20313 0.20312 0.32813 0.48437 0.32813 0.79687s-0.125 0.58984-0.32813 0.79688c-0.20312 0.20312-0.48437 0.32812-0.79687 0.32812s-0.58984-0.125-0.79688-0.32812c-0.20312-0.20313-0.32812-0.48438-0.32812-0.79688s0.125-0.58984 0.32812-0.79687c0.20313-0.20313 0.48438-0.32813 0.79688-0.32813s0.59375 0.125 0.79687 0.32813zm9.5117-7.6094c0.20312 0.20313 0.32812 0.48438 0.32812 0.79688s-0.125 0.59375-0.32812 0.79687c-0.20312 0.20313-0.48438 0.32813-0.79688 0.32813s-0.59375-0.125-0.79688-0.32813c-0.20312-0.20312-0.32812-0.48437-0.32812-0.79687s0.125-0.58984 0.32812-0.79688c0.20312-0.20312 0.48438-0.32812 0.79688-0.32812s0.59375 0.125 0.79688 0.32812zm-27.676 10.461c-0.48438-0.28906-1.0508-0.45703-1.6562-0.45703-0.89453 0-1.7031 0.36328-2.2891 0.94922-0.58594 0.58594-0.94922 1.3945-0.94922 2.2891s0.36328 1.7031 0.94922 2.2891c0.58594 0.58594 1.3945 0.94922 2.2891 0.94922s1.7031-0.36328 2.2891-0.94922c0.58594-0.58594 0.94922-1.3945 0.94922-2.2891 0-0.41406-0.078125-0.80859-0.21875-1.1719l4.8398-4.0938c0.48438 0.28906 1.0508 0.45703 1.6562 0.45703 0.89453 0 1.7031-0.36328 2.2891-0.94922 0.097656-0.097657 0.19141-0.20313 0.27344-0.3125l3.7148 1.2539c0.003906 0.88672 0.36719 1.6875 0.94922 2.2695 0.58594 0.58594 1.3945 0.94922 2.2891 0.94922s1.7031-0.36328 2.2891-0.94922c0.58594-0.58594 0.94922-1.3945 0.94922-2.2891 0-0.38281-0.066406-0.75-0.1875-1.0938l4.7305-3.7852c0.5 0.32031 1.0977 0.50391 1.7344 0.50391 0.89453 0 1.7031-0.36328 2.2891-0.94922 0.58594-0.58594 0.94922-1.3945 0.94922-2.2891s-0.36328-1.7031-0.94922-2.2891c-0.58594-0.58594-1.3945-0.94922-2.2891-0.94922s-1.7031 0.36328-2.2891 0.94922c-0.58594 0.58594-0.94922 1.3945-0.94922 2.2891 0 0.38281 0.066406 0.75 0.1875 1.0938l-4.7305 3.7852c-0.5-0.32031-1.0977-0.50391-1.7344-0.50391-0.89453 0-1.7031 0.36328-2.2891 0.94922-0.097657 0.097656-0.19141 0.20312-0.27344 0.3125l-3.7148-1.2539c-0.003906-0.88672-0.36719-1.6875-0.94922-2.2695-0.58594-0.58594-1.3945-0.94922-2.2891-0.94922s-1.7031 0.36328-2.2891 0.94922c-0.58594 0.58594-0.94922 1.3945-0.94922 2.2891 0 0.41406 0.078125 0.80859 0.21875 1.1719zm9.6562 4.3906v13.336h-3.5977v-13.336zm-4.6523-2.1133h5.707c0.58203 0 1.0547 0.47266 1.0547 1.0547v15.445c0 0.58203-0.47266 1.0547-1.0547 1.0547h-5.707c-0.58203 0-1.0547-0.47266-1.0547-1.0547v-15.445c0-0.58203 0.47266-1.0547 1.0547-1.0547zm14.164 5.4531v9.9922h-3.5977v-9.9922zm-4.6523-2.1094h5.707c0.58203 0 1.0547 0.47266 1.0547 1.0547v12.105c0 0.58203-0.47266 1.0547-1.0547 1.0547h-5.707c-0.58203 0-1.0547-0.47266-1.0547-1.0547v-12.105c0-0.58203 0.47266-1.0547 1.0547-1.0547zm14.164-6.543v18.648h-3.5977v-18.648zm-4.6523-2.1094h5.707c0.58203 0 1.0547 0.47266 1.0547 1.0547v20.758c0 0.58203-0.47266 1.0547-1.0547 1.0547h-5.707c-0.58203 0-1.0547-0.47266-1.0547-1.0547v-20.758c0-0.58203 0.47266-1.0547 1.0547-1.0547zm-23.887 15.551h-2.3242c-0.042968 0.058594-0.085937 0.12109-0.12891 0.17969-0.32812 0.43359-0.71484 0.81641-1.1445 1.1445v3.8828h3.5977zm-16.82-28.363h59.379v-2.4141h-59.379z" fill-rule="evenodd"/>
</svg>