<svg xmlns="http://www.w3.org/2000/svg" viewBox="0 0 64 80" x="0px" y="0px"><title>_</title><g data-name="Paint Roller"><path d="M44.625,4.635h-32a1.9931,1.9931,0,0,0-2,2v11a1.99946,1.99946,0,0,0,2,2h32a2.00587,2.00587,0,0,0,2-2v-11A1.99943,1.99943,0,0,0,44.625,4.635Zm-28.37,3.69h-2a1,1,0,0,1,0-2h2A1,1,0,0,1,16.255,8.325Zm13.28,0h-10a1,1,0,0,1,0-2h10A1,1,0,0,1,29.535,8.325Z"/><path d="M53.375,15.385v7.38a5.00181,5.00181,0,0,1-5,5h-13.5a1.99943,1.99943,0,0,0-2,2v2.6h-4v-2.6a6.00476,6.00476,0,0,1,6-6h13.5a1.00291,1.00291,0,0,0,1-1v-7.38a.98767.98767,0,0,0-.75-.96v-4.03A4.99149,4.99149,0,0,1,53.375,15.385Z"/><path d="M35.375,55.295a4.29681,4.29681,0,0,1-4.5,4.07,4.29681,4.29681,0,0,1-4.5-4.07l1.07-19.98a1.007,1.007,0,0,1,1-.95h4.86a1.00692,1.00692,0,0,1,1,.95Z"/><path d="M18.99189,28.40844a2.64928,2.64928,0,1,1-5.29856,0c0-1.62478,2.133-3.51368,2.61325-5.46662a.03628.03628,0,0,1,.07206,0C16.85885,24.89476,18.99189,26.78366,18.99189,28.40844Z"/></g><text x="0" y="79" fill="#000000" font-size="5px" font-weight="bold" font-family="'Helvetica Neue', Helvetica, Arial-Unicode, Arial, Sans-serif">Created by Andy Horvath</text><text x="0" y="84" fill="#000000" font-size="5px" font-weight="bold" font-family="'Helvetica Neue', Helvetica, Arial-Unicode, Arial, Sans-serif">from the Noun Project</text></svg>