<svg xmlns="http://www.w3.org/2000/svg" version="1.1" viewBox="-5.0 -10.0 110.0 135.0">
 <path d="m61.77 7.7891h-23.539v5.5391h23.535zm-26.328 4.1641c0 1.8281-0.42578 4.1641 1.3945 4.1641h26.328c1.8203 0 1.3945-2.3359 1.3945-4.1641h14.973c0.60547 0 1.1562 0.24609 1.5547 0.64453l-0.003907 0.003906c0.39844 0.39844 0.64844 0.94922 0.64844 1.5547v75.852c0 1.2031-0.98438 2.1992-2.1992 2.1992l-59.062 0.003907c-0.60547 0-1.1562-0.24609-1.5547-0.64453l0.003907-0.003906c-0.39844-0.39844-0.64844-0.94922-0.64844-1.5547l-0.003906-75.852c0-1.2031 0.98438-2.1992 2.1992-2.1992zm24.121 31.133 3.2656 1.1797c-10.125 4.4805-16.41 10.125-20.391 15.457-4.4297 5.9297-6 11.445-6.8359 14.566-0.47266 1.7695 2.2188 2.4922 2.6914 0.71875 0.78516-2.9258 2.2578-8.0977 6.3789-13.617 3.7695-5.0469 9.7539-10.402 19.465-14.664l-1.4414 3.5391c-0.6875 1.6914 1.8945 2.7422 2.582 1.0469l2.6914-6.6094h-0.003906c0.29297-0.75781-0.082032-1.5664-0.81641-1.832l-6.6406-2.4023c-1.7188-0.62109-2.668 1.9922-0.94531 2.6172zm-15.859 1.3438-3.7109-3.7109 3.7109-3.7109c1.3008-1.3008-0.67578-3.2734-1.9727-1.9727l-3.7109 3.7109-3.7109-3.7109c-1.3008-1.3008-3.2734 0.67578-1.9727 1.9727l3.7109 3.7109-3.7109 3.7109c-1.3008 1.3008 0.67578 3.2734 1.9727 1.9727l3.7109-3.7109 3.7109 3.7109c1.2969 1.3008 3.2695-0.67188 1.9727-1.9727zm20.422 22.082c-2.4805-2.4805-6.7383-0.71484-6.7383 2.793 0 3.5078 4.2617 5.2734 6.7383 2.793 1.543-1.543 1.543-4.043 0-5.5859zm-2.793-3.9453c-3.7227 0-6.7383 3.0156-6.7383 6.7383 0 5.9844 7.2695 9 11.504 4.7656 4.2344-4.2344 1.2188-11.504-4.7656-11.504z" fill-rule="evenodd"/>
</svg>