<svg xmlns="http://www.w3.org/2000/svg" version="1.1" viewBox="-5.0 -10.0 110.0 135.0">
 <path d="m96.359 7.1484h-92.719c-0.55469 0-1.0078 0.45312-1.0078 1.0078v63.398c0 0.55859 0.45313 1.0078 1.0078 1.0117h92.719c0.55469-0.003906 1.0078-0.45312 1.0078-1.0117v-63.398c0-0.55469-0.45313-1.0078-1.0078-1.0078zm-3.543 4.5508v54.211h-85.633v-54.211zm-85.711-2.332h85.789c0.59766 0 1.168 0.23828 1.5859 0.66406h0.007812c0.42188 0.41797 0.66016 0.98828 0.66016 1.5859v54.363c0 0.59766-0.23828 1.1719-0.66016 1.5938-0.03125 0.027343-0.058593 0.054687-0.089843 0.082031h-0.003907c-0.41016 0.37109-0.94531 0.57812-1.5 0.57812h-85.789c-0.59766 0-1.168-0.23828-1.5859-0.66016-0.42578-0.42188-0.66016-0.99609-0.66016-1.5938v-54.359c0-0.59766 0.23438-1.168 0.66016-1.5859 0.41797-0.42578 0.98828-0.66406 1.5859-0.66797zm57.133 75.34h-28.477c-2.6289 0.007813-4.7578 2.1367-4.7617 4.7656v3.3789h38v-3.3789c-0.003906-2.625-2.1328-4.7539-4.7578-4.7617zm-4.7734-9.8125h-18.93v7.4805l18.93 0.003906zm-19.254-27.406v12.879h-5.0469v-12.879zm-6.2109-2.332h7.3672c0.64453 0 1.1641 0.52344 1.168 1.1641v15.211c-0.003906 0.64453-0.52344 1.1641-1.168 1.1641h-7.3672c-0.30859 0-0.60547-0.12109-0.82422-0.33984s-0.33984-0.51562-0.33984-0.82422v-15.207c0-0.30859 0.12109-0.60547 0.33984-0.82422s0.51562-0.34375 0.82422-0.34375zm17.352-8.6172v23.828h-5.043v-23.824zm-6.2109-2.3281h7.3672c0.3125-0.003907 0.60938 0.12109 0.83203 0.33984 0.21875 0.21875 0.34375 0.51562 0.34375 0.82812v26.152c0 0.64453-0.52344 1.1641-1.1641 1.1641h-7.3672c-0.64453 0-1.168-0.51953-1.168-1.1641v-26.152c0-0.64453 0.51953-1.1641 1.1602-1.168zm17.355 8.457v17.699h-5.043v-17.699zm-6.207-2.3281h7.3672c0.64453 0 1.1641 0.52344 1.1641 1.1641v20.027c0 0.64453-0.51953 1.1641-1.1641 1.1641h-7.3672c-0.30859 0-0.60547-0.12109-0.82422-0.33984s-0.33984-0.51562-0.33984-0.82422v-20.027c0-0.30859 0.12109-0.60547 0.33984-0.82422s0.51562-0.33984 0.82422-0.33984zm17.352-5.8828v25.91h-5.043v-25.91zm-6.2109-2.3281h7.3672c0.64453 0 1.1641 0.51953 1.168 1.1641v28.238c-0.003906 0.64453-0.52344 1.1641-1.168 1.1641h-7.3672c-0.64453 0-1.1641-0.51953-1.1641-1.1641v-28.238c0-0.64453 0.51953-1.1641 1.1641-1.1641zm11.148-6.2812h7.3711c0.64062 0 1.1641 0.51953 1.1641 1.1641v34.527c0 0.64063-0.52344 1.1641-1.1641 1.1641h-7.3711c-0.30859 0-0.60547-0.125-0.82422-0.33984-0.21875-0.21875-0.33984-0.51562-0.33984-0.82422v-34.527c0-0.30859 0.12109-0.60547 0.33984-0.82422s0.51562-0.33984 0.82422-0.33984zm6.207 2.3281v32.191h-5.043v-32.191zm-7.9922-10.949h-0.003907c-0.63672-0.019531-1.1406-0.55469-1.1211-1.1914 0.019531-0.64062 0.55469-1.1445 1.1953-1.1211l5.4102 0.17188v-0.003907c0.066406 0.003907 0.13672 0.007813 0.20312 0.019531h0.023438c0.089844 0.019532 0.17969 0.050782 0.26172 0.089844l0.019531 0.007813 0.011719 0.003906 0.015625 0.007813 0.011718 0.003906 0.015626 0.007812 0.011718 0.007813 0.015625 0.007812 0.007813 0.007813 0.011718 0.007812 0.015626 0.007813h0.007812l0.039062 0.03125c0.019532 0.015625 0.042969 0.03125 0.0625 0.050781l0.019532 0.015625 0.015625 0.015625 0.019531 0.015625 0.039062 0.039063-0.011718-0.003907c0.10156 0.10938 0.17969 0.23438 0.23438 0.37109l0.019531 0.050781 0.007812 0.019532 0.015626 0.046874 0.003906 0.019532v0.12891h-0.003906c0.019531 0.14453 0.007812 0.29297-0.027344 0.43359l-1.3516 5.293c-0.16406 0.62109-0.79688 0.99219-1.418 0.82813-0.62109-0.16406-0.99219-0.79688-0.82812-1.418l0.52734-1.9609-19.551 15.008c-0.36719 0.30469-0.88281 0.35547-1.3047 0.125l-10.387-5.7109-10.527 10.34c-0.45703 0.44922-1.1914 0.44141-1.6406-0.015625s-0.44531-1.1914 0.011719-1.6406l11.145-10.949c0.36328-0.35547 0.92188-0.43359 1.3672-0.1875l10.48 5.7617 19.113-14.668-2.1875-0.070312zm-54.379 8.8789c-0.53125-0.30469-0.83984-0.89062-0.78906-1.5 0-0.51562 0.20312-1.0156 0.57031-1.3789 0.066407-0.070312 0.14063-0.13281 0.21875-0.1875zm2.3281 3.2383c0.53125 0.30469 0.83984 0.88672 0.78906 1.5 0 0.51562-0.20703 1.0117-0.57422 1.3789-0.066406 0.066406-0.13672 0.12891-0.21484 0.1875zm-2.3281-9.5977c-0.011718-0.31641 0.10938-0.62109 0.32813-0.84766 0.21875-0.22656 0.51953-0.35547 0.83594-0.35547 0.3125 0 0.61719 0.12891 0.83594 0.35547 0.21875 0.22656 0.33594 0.53125 0.32813 0.84766v0.73828-0.003906c1.8438 0.52344 3.1172 2.207 3.1172 4.125-0.019531 0.62891-0.53516 1.1289-1.1641 1.1289-0.62891 0-1.1445-0.5-1.1641-1.1289 0-0.51953-0.20703-1.0156-0.57422-1.3828-0.066406-0.066406-0.13672-0.12891-0.21484-0.1875v3.7773c1.668 0.46094 3.1172 1.2266 3.1172 4.0273 0 1.918-1.2734 3.6016-3.1172 4.1211v0.73828c-0.019532 0.62891-0.53516 1.1289-1.1641 1.1289s-1.1484-0.5-1.1641-1.1289v-0.73828c-1.8438-0.51953-3.1172-2.2031-3.1211-4.1172-0.007813-0.31641 0.10938-0.62109 0.33203-0.84766 0.21875-0.22656 0.51953-0.35547 0.83594-0.35547 0.3125 0 0.61719 0.12891 0.83594 0.35547 0.21875 0.22656 0.33594 0.53125 0.32812 0.84766 0 0.51562 0.20312 1.0117 0.57031 1.3789 0.066407 0.066406 0.14063 0.12891 0.21875 0.1875v-3.7773c-1.668-0.46094-3.1172-1.2266-3.1172-4.0273h-0.003906c0.003906-1.918 1.2773-3.6016 3.1211-4.125v-0.73828zm9.6953-0.55078h-0.003906c4.0703 4.0703 4.7031 10.445 1.5039 15.234-3.1953 4.7852-9.332 6.6445-14.648 4.4453-5.3164-2.2031-8.3398-7.8555-7.2148-13.504 1.1211-5.6445 6.0781-9.7109 11.832-9.707 3.1992-0.003906 6.2695 1.2656 8.5273 3.5312zm-8.5273-5.8633h-0.003906c4.4766 0 8.6953 2.0859 11.418 5.6328 2.7227 3.5508 3.6406 8.168 2.4805 12.488-1.1602 4.3203-4.2656 7.8594-8.3984 9.5703-4.1328 1.7109-8.8281 1.3984-12.703-0.83984-3.875-2.2383-6.4844-6.1523-7.0664-10.586-0.58594-4.4375 0.92969-8.8906 4.0938-12.055 2.6992-2.6992 6.3594-4.2148 10.176-4.2109z" fill-rule="evenodd"/>
<text x="0.0" y="117.5" font-size="5.0" font-weight="bold" font-family="Arbeit Regular, Helvetica, Arial-Unicode, Arial, Sans-serif" fill="#000000">Created by Siti Solekah</text><text x="0.0" y="122.5" font-size="5.0" font-weight="bold" font-family="Arbeit Regular, Helvetica, Arial-Unicode, Arial, Sans-serif" fill="#000000">from Noun Project</text></svg>