<svg xmlns="http://www.w3.org/2000/svg" xmlns:xlink="http://www.w3.org/1999/xlink" xml:space="preserve" version="1.1" style="shape-rendering:geometricPrecision;text-rendering:geometricPrecision;image-rendering:optimizeQuality;" viewBox="0 0 333.33 416.66249999999997" x="0px" y="0px" fill-rule="evenodd" clip-rule="evenodd"><defs><style type="text/css">
   
    .fil0 {fill:black}
   
  </style></defs><g><path class="fil0" d="M117.86 142.4l97.61 0 0 -52.46c0,-26.84 -21.96,-48.81 -48.81,-48.81l0 0c-26.85,0 -48.81,21.96 -48.81,48.81l0 52.46zm130.31 2.54c20.87,6.8 36.07,26.48 36.07,49.54l0 78.32c0,28.65 -23.44,52.09 -52.09,52.09l-130.97 0c-28.65,0 -52.09,-23.44 -52.09,-52.09l0 -78.32c0,-23.06 15.2,-42.75 36.07,-49.54l0 -55c0,-44.82 36.68,-81.5 81.5,-81.5l0 0c44.83,0 81.5,36.68 81.5,81.5l0 55zm-81.5 38.77c-15.31,0 -27.73,12.42 -27.73,27.73 0,10.57 5.91,19.76 14.61,24.44l0 34.58c0,7.22 5.9,13.12 13.11,13.12l0 0c7.21,0 13.11,-5.9 13.11,-13.12l0 -34.58c8.7,-4.68 14.61,-13.87 14.61,-24.44 0,-15.31 -12.41,-27.73 -27.73,-27.73z"/></g><text x="0" y="348.33" fill="#000000" font-size="5px" font-weight="bold" font-family="'Helvetica Neue', Helvetica, Arial-Unicode, Arial, Sans-serif">Created by YANDI RS</text><text x="0" y="353.33" fill="#000000" font-size="5px" font-weight="bold" font-family="'Helvetica Neue', Helvetica, Arial-Unicode, Arial, Sans-serif">from the Noun Project</text></svg>