<svg xmlns="http://www.w3.org/2000/svg" data-name="Layer 1" viewBox="0 0 100 125" x="0px" y="0px"><path d="M58.62,58.6a10.21,10.21,0,0,1-5.76,1.67A10.27,10.27,0,1,1,58.62,41.4a.85.85,0,0,0,1.07-.12l2.45-2.45a.86.86,0,0,0-.1-1.31,15.52,15.52,0,0,0-2.39-1.42V30.86a.87.87,0,0,0-.87-.86H55.94a.86.86,0,0,0-.86.86v3.89A15.76,15.76,0,0,0,53,34.6a15.1,15.1,0,0,0-4.22.59V30.86a.87.87,0,0,0-.86-.86H45.08a.86.86,0,0,0-.86.86v6.49a15.4,15.4,0,0,0,0,25.3v6.49a.86.86,0,0,0,.86.86h2.85a.87.87,0,0,0,.86-.86V64.81A15.1,15.1,0,0,0,53,65.4a15.76,15.76,0,0,0,2.07-.15v3.89a.86.86,0,0,0,.86.86h2.84a.87.87,0,0,0,.87-.86V63.9A15.52,15.52,0,0,0,62,62.48a.86.86,0,0,0,.1-1.31l-2.45-2.45A.85.85,0,0,0,58.62,58.6Z"/><text x="0" y="115" fill="#000000" font-size="5px" font-weight="bold" font-family="'Helvetica Neue', Helvetica, Arial-Unicode, Arial, Sans-serif">Created by ohriandesign</text><text x="0" y="120" fill="#000000" font-size="5px" font-weight="bold" font-family="'Helvetica Neue', Helvetica, Arial-Unicode, Arial, Sans-serif">from the Noun Project</text></svg>