<svg xmlns="http://www.w3.org/2000/svg" version="1.1" viewBox="-5.0 -10.0 110.0 135.0">
 <path d="m90.625 17.531h-58.688c-1.7188 0-3.125 1.4062-3.125 3.125v1.9062h50.531c5.1875 0 9.375 4.1875 9.375 9.375v27.969h1.9062c1.7188 0 3.125-1.4062 3.125-3.125v-36.125c0-1.7188-1.4062-3.125-3.125-3.125z"/>
 <path d="m77.438 43.219v27.969h1.9062c1.7188 0 3.125-1.4062 3.125-3.125v-36.125c0-1.7188-1.4062-3.125-3.125-3.125h-58.688c-1.7188 0-3.125 1.4062-3.125 3.125v1.9062h50.531c5.1562 0 9.375 4.2188 9.375 9.375z"/>
 <path d="m38.719 67.531c1.6875 0 3.5938-2.6562 3.5938-6.25 0-3.5625-1.9062-6.25-3.5938-6.25s-3.5938 2.6875-3.5938 6.25c0 3.5938 1.9062 6.25 3.5938 6.25z"/>
 <path d="m9.375 82.469h58.688c1.7188 0 3.125-1.4062 3.125-3.125v-36.125c0-1.7188-1.4062-3.125-3.125-3.125h-58.688c-1.7188 0-3.125 1.4062-3.125 3.125v36.125c0 1.7188 1.4062 3.125 3.125 3.125zm29.344-33.688c5.5 0 9.8438 5.5 9.8438 12.5s-4.3438 12.5-9.8438 12.5c-5.5312 0-9.8438-5.5-9.8438-12.5s4.3125-12.5 9.8438-12.5z"/>
<text x="0.0" y="117.5" font-size="5.0" font-weight="bold" font-family="Arbeit Regular, Helvetica, Arial-Unicode, Arial, Sans-serif" fill="#000000">Created by Riyan Resdian</text><text x="0.0" y="122.5" font-size="5.0" font-weight="bold" font-family="Arbeit Regular, Helvetica, Arial-Unicode, Arial, Sans-serif" fill="#000000">from Noun Project</text></svg>