<svg xmlns="http://www.w3.org/2000/svg" version="1.1" viewBox="-5.0 -10.0 110.0 135.0">
 <path d="m87.738 71.199c-2.1367-3.5195-6.6367-4.6992-10.23-2.6758l-10.656 5.9688c2.2305 4.1992-0.0625 9.7812-5.168 9.8008h-0.34375l-17.812-1.0117c-1.3555-0.10547-1.2695-2.1133 0.11328-2.082l17.812 1.0117c3.6367 0.125 5.082-3.7617 3.582-6.6875-0.84375-1.8125-2.582-3.168-4.5625-3.5117-0.35547-0.11328-5.168-0.32422-5.6562-0.375-2.082-0.19922-4.5117 0.15625-6.207-1.3125-4.582-3.4805-13.363-6.7305-19.707-3.918v24.855c4.75 2.543 19.207 6.7695 26.449 3.2188 13.863-7.3633 31.094-18.938 31.449-19.168 1.3633-0.90625 1.793-2.7383 0.94922-4.0938z"/>
 <path d="m12.863 63.543h12.918c0.57422 0 1.043 0.57422 1.043 1.043v26.895c0 0.57422-0.46484 1.043-1.043 1.043h-12.918c-0.57422 0-1.043-0.57422-1.043-1.043v-26.895c0-0.57422 0.46484-1.043 1.043-1.043z"/>
 <path d="m49.668 47.094c0-1.6445-1.043-2.5625-2.8008-3.5v6.9062c1.6133-0.42578 2.8008-1.7812 2.8008-3.4062z"/>
 <path d="m35.074 14.582h20.637c0.63672 0 1.2305 0.125 1.7812 0.33203 4.5742-8.125 2.5938-9.7305 1.8945-10.281-2.0312-1.6992-5.2383 1.6367-7.2812 1.9258-1.918-0.35547-3.7188-2.25-6.0508-2.1562-2.7812-0.09375-4.418 1.7617-6.543 2.1562-0.5 0-1.5312-0.57422-2.3555-1.043-1.6445-0.92578-3.5117-1.9805-4.8945-0.88672-0.69922 0.55078-2.6445 2.1367 1.7695 10.074 0.33203-0.074219 0.6875-0.11328 1.043-0.11328z"/>
 <path d="m44.77 33.324c-1.6133 0.42578-2.8008 1.7812-2.8008 3.4062s1.043 2.5625 2.8008 3.5z"/>
 <path d="m66.488 47.957c1.7383-0.03125 1.7383-3.082 0-3.1133-1.7383 0.03125-1.7383 3.082 0 3.1133z"/>
 <path d="m72.801 57.781c0.03125 2.0508 2.625 2.0508 2.6562 0-0.03125-2.0508-2.625-2.0508-2.6562 0z"/>
 <path d="m54.676 52.094c0 8.6133 7.0117 15.637 15.637 15.637 20.738-0.85547 20.73-30.406 0-31.262-8.625 0-15.637 7.0117-15.637 15.637zm22.867 5.6875c-0.14453 4.8125-6.6758 4.8125-6.8242 0 0.14453-4.8125 6.6758-4.8125 6.8242 0zm-3.668-14.48c0.66797-1.1875 2.4688-0.23047 1.832 0.98828l-8.9492 16.582c-0.65625 1.1992-2.4805 0.20703-1.832-0.98828l8.9492-16.582zm-7.3867-0.53906c4.5117 0.14453 4.5 7.1367 0 7.2812-4.5117-0.14453-4.5117-7.1367 0-7.2812z"/>
 <path d="m56.812 63.543c-9.332-10.762-2.1992-28 12-29.094-2.375-4.9258-6.332-8.3633-10.25-11.688-0.79297 0.58203-1.7812 0.9375-2.8633 0.9375h-20.637c-0.76172 0-1.457-0.1875-2.0938-0.48828-6.7812 4.9375-12.219 10.605-12.387 21.488 0 5.8945 2 11.293 5.7812 15.625 1.793 2.043 4.418 3.2188 7.207 3.2188h23.219zm-16.926-26.812c0-2.7695 2.1133-5.082 4.8867-5.5508v-0.6875c0-0.57422 0.46875-1.043 1.043-1.043 0.57422 0 1.043 0.46875 1.043 1.043v0.6875c2.7695 0.46875 4.8867 2.7812 4.8867 5.5508 0 0.57422-0.46875 1.043-1.043 1.043s-1.043-0.46875-1.043-1.043c0-1.625-1.1875-2.9883-2.8008-3.4062v7.9258c2.4062 1.1562 4.8867 2.5742 4.8867 5.832 0 2.7695-2.1133 5.082-4.8867 5.5508v0.6875c0 0.57422-0.46875 1.043-1.043 1.043-0.57422 0-1.043-0.46875-1.043-1.043v-0.6875c-2.7695-0.46875-4.8867-2.7812-4.8867-5.5508 0-0.57422 0.46875-1.043 1.043-1.043 0.57422 0 1.043 0.46875 1.043 1.043 0 1.625 1.1875 2.9883 2.8008 3.4062v-7.9258c-2.4062-1.1562-4.8867-2.5742-4.8867-5.832z"/>
 <path d="m21.426 23.875c2.8438 4.9688 9.4688-0.29297 12.293-2.6055 0.39453 0.21875 0.85547 0.34375 1.3555 0.34375h20.637c1.4492 0 2.625-1.0625 2.625-2.3633 0.10547-1.3945-1.082-2.582-2.625-2.582h-20.637c-0.46875 0-0.90625 0.125-1.293 0.32422-1.5195-2.293-5.1133-7.1367-8.4492-7.457-3.043-0.375-5.207 3.6758-4.0117 5.5625 0.54297 1.1445 1.7305 2.0508 3.1875 2.7617-2.7617 0.84375-4.6992 2.4805-3.0742 6.0195zm1.7734-9.6875c-0.11328-0.23828-0.41797-0.875 0.61328-2.0195 2.1367-2.1875 5.9062 2.7617 7.832 5.3867-3.5117-0.29297-7.6562-1.6992-8.4492-3.3633zm0.019531 6.6367c1.3945-1.6055 6.4805-1.5625 9.043-1.043-2.5312 2.0195-7.4883 5.8242-8.9688 3.1562-0.69922-1.375-0.23828-1.9062-0.074219-2.1133z"/>
<text x="0.0" y="117.5" font-size="5.0" font-weight="bold" font-family="Arbeit Regular, Helvetica, Arial-Unicode, Arial, Sans-serif" fill="#000000">Created by Yoyon Pujiyono</text><text x="0.0" y="122.5" font-size="5.0" font-weight="bold" font-family="Arbeit Regular, Helvetica, Arial-Unicode, Arial, Sans-serif" fill="#000000">from Noun Project</text></svg>