<svg xmlns="http://www.w3.org/2000/svg" xmlns:xlink="http://www.w3.org/1999/xlink" version="1.1" x="0px" y="0px" viewBox="0 0 34 42.5" enable-background="new 0 0 34 34" xml:space="preserve"><g><path d="M17.74208,6.24042c-0.45001-0.21997-0.97998-0.22998-1.42999-0.01996c-0.3287,0.11735,0.53409-0.49066-14.94,11.91998   c-0.42999,0.34998-0.5,0.97998-0.14996,1.40997c0.34998,0.43005,0.97998,0.5,1.40997,0.15002l1.36999-1.09998v12.38995   c0,1.09998,0.90002,2,2,2h5.88c0.55231,0,1-0.44775,1-1v-7.94434c0-0.55231,0.44769-1,1-1h6c0.55231,0,1,0.44769,1,1v7.94434   c0,0.55225,0.44769,1,1,1h6.12c1.09998,0,2-0.90002,2-2V18.60047l1.37,1.09998c0.44033,0.34768,1.0713,0.27337,1.41003-0.15002   c0.33997-0.42999,0.27997-1.06-0.15002-1.40997C17.20564,5.76381,18.10338,6.39112,17.74208,6.24042z"/><path d="M2.67207,14.66046l14.37-11.56c3.39588,2.75352,7.09856,5.66851,7.61005,6.17999   c0.36577,0.36577,0.99422,0.40445,1.41998,0c0.10499-0.10499,4.73621-4.73628,4.58331-4.58337l1.88574,1.88574   c0.15747,0.15747,0.42676,0.04596,0.42676-0.17676V1.25959c0-0.13806-0.11194-0.25-0.25-0.25h-5.14642   c-0.22272,0-0.33429,0.26929-0.17676,0.42682l1.84528,1.84528L25.3221,7.19043l-7.20001-5.78998c-0.63-0.5-1.53998-0.5-2.15997,0   L1.41212,13.10047c-0.43005,0.34998-0.49005,0.97998-0.15002,1.40997C1.61208,14.94043,2.24208,15.01044,2.67207,14.66046z"/></g><text x="0" y="49" fill="#000000" font-size="5px" font-weight="bold" font-family="'Helvetica Neue', Helvetica, Arial-Unicode, Arial, Sans-serif">Created by Vectors Point</text><text x="0" y="54" fill="#000000" font-size="5px" font-weight="bold" font-family="'Helvetica Neue', Helvetica, Arial-Unicode, Arial, Sans-serif">from the Noun Project</text></svg>