<svg xmlns="http://www.w3.org/2000/svg" version="1.1" viewBox="-5.0 -10.0 110.0 135.0">
 <path d="m75 22.445c1.6836 0 3.0547 1.3711 3.0547 3.0547 0 1.7266 1.3984 3.125 3.125 3.125 1.7266 0 3.125-1.3984 3.125-3.125 0-4.0273-2.5898-7.4336-6.1797-8.7266v-0.71484c0-1.7266-1.3984-3.125-3.125-3.125s-3.125 1.3984-3.125 3.125v0.71875c-3.5898 1.293-6.1797 4.6953-6.1797 8.7266 0 0.66406 0.070313 1.3281 0.20703 1.9609 0.91406 4.2539 4.7383 7.3438 9.0977 7.3438 1.4297 0 2.6875 1.0117 2.9883 2.4102 0.046875 0.21094 0.066407 0.42188 0.066407 0.64844 0 1.6836-1.3711 3.0547-3.0547 3.0547s-3.0547-1.3711-3.0547-3.0547c0-1.7266-1.3984-3.125-3.125-3.125-1.7266 0-3.125 1.3984-3.125 3.125 0 4.0273 2.5898 7.4336 6.1797 8.7266v0.71875c0 1.7266 1.3984 3.125 3.125 3.125s3.125-1.3984 3.125-3.125v-0.71875c3.5898-1.293 6.1797-4.6953 6.1797-8.7266 0-0.66406-0.070313-1.3281-0.20703-1.9609-0.91406-4.2578-4.7383-7.3477-9.0977-7.3477-1.4297 0-2.6875-1.0117-2.9883-2.4102-0.046875-0.21094-0.066407-0.42188-0.066407-0.64844 0-1.6836 1.3711-3.0547 3.0547-3.0547z"/>
 <path d="m9.3711 75.105c0.1875 0 0.38281-0.015625 0.57812-0.054688l33.531-6.2852-8.6172 13.496c-0.61328 0.96094-0.65625 2.1836-0.10547 3.1836 0.55078 1 1.6016 1.6211 2.7422 1.6211h25c1.1406 0 2.1914-0.62109 2.7422-1.625 0.55078-1 0.50781-2.2227-0.10547-3.1836l-10.012-15.68 36.078-6.7656c1.6953-0.32031 2.8125-1.9531 2.4922-3.6484-0.31641-1.6953-1.9219-2.8164-3.6484-2.4961l-81.25 15.234c-1.6953 0.32031-2.8125 1.9531-2.4922 3.6484 0.28125 1.5078 1.5938 2.5547 3.0664 2.5547z"/>
 <path d="m19.645 59.105c0.56641 0.58203 1.3516 0.94531 2.2305 0.94531s1.6641-0.36719 2.2305-0.94531l8.8672-9.0508c1.207-1.2344 1.1914-3.2109-0.042968-4.418-1.2383-1.207-3.2148-1.1914-4.418 0.046875l-3.5117 3.582v-14.703c0-1.7266-1.3984-3.125-3.125-3.125s-3.125 1.3984-3.125 3.125v14.703l-3.5117-3.5859c-1.207-1.2344-3.1836-1.2539-4.418-0.046876-1.2344 1.207-1.25 3.1875-0.042968 4.418z"/>
<text x="0.0" y="117.5" font-size="5.0" font-weight="bold" font-family="Arbeit Regular, Helvetica, Arial-Unicode, Arial, Sans-serif" fill="#000000">Created by Riyan Resdian</text><text x="0.0" y="122.5" font-size="5.0" font-weight="bold" font-family="Arbeit Regular, Helvetica, Arial-Unicode, Arial, Sans-serif" fill="#000000">from Noun Project</text></svg>